<?xml version="1.0" encoding="UTF-8"?><svg id="L-256" xmlns="http://www.w3.org/2000/svg" viewBox="0 0 188.5 206.6"><path d="M0,158.3c36.2,36.8,99.3,32.7,144.8,17.9,14.9-5.2,34.5-13,43.7-26.3-3,8.5-10.1,15.2-17.1,20.6C127,204,29,217.4,0,158.3h0Z"/><path d="M17.1,206.6c23.3-20.5,27.1-55.2,30-84.4,2.8-35.8,2.2-72.3.3-108.1,0,0-.4-6.8-.4-6.8,0,0-.2-3.4-.2-3.4,0-1.1-.6-2.2,1-3.5l4.6-.4c1.8,1,1.3,2.2,1.5,3.3.2,2,.7,8.1.9,10.2,1.6,20.1,2.9,41.4,3.3,61.4.5,29.9-.2,59.7-7.4,89.2-4.8,17.1-12.7,41.2-33.7,42.5h0Z"/><text transform="translate(52.8 189) rotate(-159.5) scale(1.1 1) skewX(-3)" style="fill:#fff; font-family:AdobeSongStd-Light-GBpc-EUC-H, &apos;Adobe Song Std&apos;; font-size:6px; font-weight:300;"><tspan x="0" y="0">何人晓得</tspan></text></svg>